<?xml version="1.0" encoding="UTF-8"?>
<svg xmlns="http://www.w3.org/2000/svg" xmlns:xlink="http://www.w3.org/1999/xlink" width="2500pt" height="2500pt" viewBox="0 0 2500 2500" version="1.1">
<g id="surface1">
<path style=" stroke:none;fill-rule:nonzero;fill:rgb(5.499268%,70.199585%,89.7995%);fill-opacity:1;" d="M 2300 1387.5 C 2293.75 1431.25 2275 1475 2262.5 1512.5 C 2243.75 1550 2225 1587.5 2200 1625 C 2175 1662.5 2100 1756.25 2000 1812.5 C 1900 1868.75 1806.25 1887.5 1750 1900 C 1787.5 1800 1812.5 1700 1812.5 1587.5 L 1812.5 481.25 L 2312.5 193.75 L 2312.5 1250 C 2312.5 1300 2312.5 1343.75 2300 1387.5 Z M 1237.5 2262.5 C 1193.75 2281.25 1131.25 2306.25 1081.25 2318.75 C 1031.25 2331.25 987.5 2331.25 937.5 2331.25 C 887.5 2331.25 837.5 2325 787.5 2312.5 C 737.5 2300 693.75 2287.5 650 2268.75 C 606.25 2250 562.5 2225 525 2200 C 412.5 2131.25 356.25 2068.75 312.5 2000 C 287.5 1962.5 262.5 1918.75 243.75 1875 C 225 1831.25 212.5 1781.25 200 1731.25 C 187.5 1681.25 187.5 1631.25 187.5 1581.25 L 187.5 575 L 812.5 193.75 L 812.5 1250 C 812.5 1650 1106.25 1987.5 1481.25 2068.75 C 1468.75 2087.5 1456.25 2106.25 1437.5 2118.75 C 1368.75 2187.5 1312.5 2231.25 1237.5 2262.5 Z M 831.25 0 L 0 481.25 L 0 1581.25 C 0 2087.5 406.25 2500 912.5 2500 C 1081.25 2500 1237.5 2456.25 1375 2381.25 L 2050 1993.75 C 2318.75 1850 2500 1575 2500 1250 L 2500 100 L 2337.5 6.25 L 1625 387.5 L 1625 1587.5 C 1625 1637.5 1618.75 1687.5 1612.5 1737.5 C 1600 1787.5 1587.5 1831.25 1568.75 1875 L 1550 1912.5 C 1525 1912.5 1368.75 1856.25 1287.5 1800 C 1250 1775 1218.75 1750 1187.5 1718.75 C 1156.25 1687.5 1131.25 1656.25 1106.25 1618.75 C 1081.25 1581.25 1062.5 1543.75 1043.75 1506.25 C 1025 1468.75 1012.5 1425 1006.25 1381.25 C 1000 1337.5 1000 1293.75 1000 1250 L 1000 100 L 831.25 0 "/>
</g>
</svg>
